<svg width="24" height="24" viewBox="0 0 24 24" fill="none" xmlns="http://www.w3.org/2000/svg">
<path d="M7 10.9999H17C17.2652 10.9999 17.5196 10.8945 17.7071 10.707C17.8946 10.5195 18 10.2651 18 9.9999C18 9.73468 17.8946 9.48033 17.7071 9.29279C17.5196 9.10525 17.2652 8.9999 17 8.9999H13V5.4099L13.79 6.2099C13.883 6.30363 13.9936 6.37802 14.1154 6.42879C14.2373 6.47956 14.368 6.50569 14.5 6.50569C14.632 6.50569 14.7627 6.47956 14.8846 6.42879C15.0064 6.37802 15.117 6.30363 15.21 6.2099C15.3037 6.11693 15.3781 6.00633 15.4289 5.88447C15.4797 5.76261 15.5058 5.63191 15.5058 5.4999C15.5058 5.36788 15.4797 5.23718 15.4289 5.11532C15.3781 4.99346 15.3037 4.88286 15.21 4.7899L12.71 2.2899C12.6149 2.19886 12.5028 2.12749 12.38 2.0799C12.1365 1.97988 11.8635 1.97988 11.62 2.0799C11.4972 2.12749 11.3851 2.19886 11.29 2.2899L8.79 4.7899C8.6017 4.9782 8.49591 5.23359 8.49591 5.4999C8.49591 5.7662 8.6017 6.02159 8.79 6.2099C8.9783 6.3982 9.2337 6.50399 9.5 6.50399C9.7663 6.50399 10.0217 6.3982 10.21 6.2099L11 5.4099V8.9999H7C6.73478 8.9999 6.48043 9.10525 6.29289 9.29279C6.10536 9.48033 6 9.73468 6 9.9999C6 10.2651 6.10536 10.5195 6.29289 10.707C6.48043 10.8945 6.73478 10.9999 7 10.9999ZM17 12.9999H7C6.73478 12.9999 6.48043 13.1053 6.29289 13.2928C6.10536 13.4803 6 13.7347 6 13.9999C6 14.2651 6.10536 14.5195 6.29289 14.707C6.48043 14.8945 6.73478 14.9999 7 14.9999H11V18.5899L10.21 17.7899C10.1168 17.6967 10.0061 17.6227 9.88425 17.5722C9.76243 17.5218 9.63186 17.4958 9.5 17.4958C9.36814 17.4958 9.23757 17.5218 9.11575 17.5722C8.99393 17.6227 8.88324 17.6967 8.79 17.7899C8.69676 17.8831 8.6228 17.9938 8.57234 18.1156C8.52188 18.2375 8.49591 18.368 8.49591 18.4999C8.49591 18.6318 8.52188 18.7623 8.57234 18.8841C8.6228 19.006 8.69676 19.1167 8.79 19.2099L11.29 21.7099C11.3851 21.8009 11.4972 21.8723 11.62 21.9199C11.7397 21.9728 11.8691 22.0001 12 22.0001C12.1309 22.0001 12.2603 21.9728 12.38 21.9199C12.5028 21.8723 12.6149 21.8009 12.71 21.7099L15.21 19.2099C15.3983 19.0216 15.5041 18.7662 15.5041 18.4999C15.5041 18.2336 15.3983 17.9782 15.21 17.7899C15.0217 17.6016 14.7663 17.4958 14.5 17.4958C14.2337 17.4958 13.9783 17.6016 13.79 17.7899L13 18.5899V14.9999H17C17.2652 14.9999 17.5196 14.8945 17.7071 14.707C17.8946 14.5195 18 14.2651 18 13.9999C18 13.7347 17.8946 13.4803 17.7071 13.2928C17.5196 13.1053 17.2652 12.9999 17 12.9999Z" fill="#6C3C14"/>
</svg>
