<svg width="24" height="24" viewBox="0 0 24 24" fill="none" xmlns="http://www.w3.org/2000/svg">
<path d="M18.1748 13H12.9998V11H18.1748L16.2998 9.12503C16.1165 8.92503 16.0205 8.68769 16.0118 8.41303C16.0032 8.13836 16.0992 7.90069 16.2998 7.70003C16.5005 7.49936 16.7338 7.39936 16.9998 7.40003C17.2658 7.40069 17.4992 7.50069 17.6998 7.70003L21.2998 11.3C21.3998 11.4 21.4708 11.5084 21.5128 11.625C21.5548 11.7417 21.5755 11.8667 21.5748 12C21.5742 12.1334 21.5535 12.2584 21.5128 12.375C21.4722 12.4917 21.4012 12.6 21.2998 12.7L17.6998 16.3C17.4998 16.5 17.2665 16.6 16.9998 16.6C16.7332 16.6 16.4998 16.5 16.2998 16.3C16.0998 16.1 15.9998 15.8627 15.9998 15.588C15.9998 15.3134 16.0998 15.0757 16.2998 14.875L18.1748 13ZM5.82484 13L7.69984 14.875C7.88318 15.075 7.97884 15.3127 7.98684 15.588C7.99484 15.8634 7.89918 16.1007 7.69984 16.3C7.50051 16.4994 7.26718 16.5994 6.99984 16.6C6.73251 16.6007 6.49918 16.5007 6.29984 16.3L2.69984 12.7C2.59984 12.6 2.52884 12.4917 2.48684 12.375C2.44484 12.2584 2.42451 12.1334 2.42584 12C2.42718 11.8667 2.44818 11.7417 2.48884 11.625C2.52951 11.5084 2.60018 11.4 2.70084 11.3L6.30084 7.70003C6.50084 7.50003 6.73418 7.40003 7.00084 7.40003C7.26751 7.40003 7.50084 7.50003 7.70084 7.70003C7.90084 7.90003 8.00084 8.13769 8.00084 8.41303C8.00084 8.68836 7.90084 8.92569 7.70084 9.12503L5.82484 11H10.9998V13H5.82484Z" fill="black"/>
</svg>
