<svg width="28" height="28" viewBox="0 0 28 28" fill="none" xmlns="http://www.w3.org/2000/svg">
<g clip-path="url(#clip0_121_406)">
<path d="M25.239 13.4796C25.241 13.4796 25.2426 13.4796 25.2446 13.4796C25.3878 13.4796 25.5244 13.4196 25.6214 13.3143C25.72 13.2076 25.7687 13.0643 25.7559 12.9196C25.2405 7.25085 20.7524 2.76123 15.0832 2.24482C14.9395 2.23353 14.7947 2.28024 14.6879 2.37931C14.5811 2.47787 14.5216 2.61699 14.5231 2.76226C14.6125 10.2959 15.6063 13.3744 25.239 13.4796ZM25.239 14.5207C15.6063 14.6259 14.613 17.7044 14.5237 25.238C14.5221 25.3833 14.5817 25.5224 14.6884 25.621C14.7839 25.7088 14.9087 25.7575 15.037 25.7575C15.0524 25.7575 15.0683 25.757 15.0837 25.7555C20.753 25.2391 25.241 20.75 25.7559 15.0807C25.7687 14.936 25.7205 14.7927 25.6214 14.686C25.5223 14.5792 25.3842 14.5263 25.239 14.5207ZM12.8825 2.24739C7.23124 2.77869 2.75754 7.26727 2.24472 12.9206C2.23189 13.0654 2.28014 13.2086 2.37921 13.3154C2.47623 13.4206 2.61329 13.4801 2.756 13.4801C2.75805 13.4801 2.76011 13.4801 2.76216 13.4801C12.363 13.3698 13.3543 10.2929 13.4446 2.76431C13.4462 2.61904 13.3861 2.47941 13.2793 2.38085C13.1715 2.28229 13.0273 2.23404 12.8825 2.24739ZM2.76165 14.5202C2.602 14.5022 2.47675 14.5782 2.3787 14.6849C2.28014 14.7917 2.23137 14.9349 2.24421 15.0797C2.75703 20.733 7.23124 25.2216 12.8825 25.7529C12.8984 25.7545 12.9149 25.755 12.9308 25.755C13.0591 25.755 13.1833 25.7067 13.2788 25.6189C13.3856 25.5204 13.4457 25.3808 13.4441 25.2355C13.3538 17.7074 12.363 14.6305 2.76165 14.5202Z" fill="black"/>
</g>
<defs>
<clipPath id="clip0_121_406">
<rect width="28" height="28" fill="white"/>
</clipPath>
</defs>
</svg>
