<svg width="24" height="24" viewBox="0 0 24 24" fill="none" xmlns="http://www.w3.org/2000/svg">
<path d="M21.7431 12.3309L12.7431 2.3309C12.3641 1.9089 11.6361 1.9089 11.2571 2.3309L2.25712 12.3309C2.1278 12.4746 2.04291 12.6528 2.01274 12.8437C1.98257 13.0347 2.0084 13.2303 2.08712 13.4069C2.24712 13.7679 2.60512 13.9999 3.00012 13.9999H5.00012V20.9999C5.00012 21.2651 5.10547 21.5195 5.29301 21.707C5.48055 21.8945 5.7349 21.9999 6.00012 21.9999H9.00012C9.26533 21.9999 9.51969 21.8945 9.70722 21.707C9.89476 21.5195 10.0001 21.2651 10.0001 20.9999V16.9999H14.0001V20.9999C14.0001 21.2651 14.1055 21.5195 14.293 21.707C14.4805 21.8945 14.7349 21.9999 15.0001 21.9999H18.0001C18.2653 21.9999 18.5197 21.8945 18.7072 21.707C18.8948 21.5195 19.0001 21.2651 19.0001 20.9999V13.9999H21.0001C21.1938 14.0007 21.3835 13.9452 21.5462 13.8401C21.7088 13.7349 21.8373 13.5847 21.9161 13.4078C21.9949 13.2309 22.0205 13.0348 21.9897 12.8436C21.959 12.6524 21.8733 12.4743 21.7431 12.3309Z" fill="#6C3C14"/>
</svg>
