<svg width="28" height="28" viewBox="0 0 28 28" fill="none" xmlns="http://www.w3.org/2000/svg">
<path d="M14.0007 16.3333C16.5743 16.3333 18.6673 14.2403 18.6673 11.6667C18.6673 9.093 16.5743 7 14.0007 7C11.427 7 9.33398 9.093 9.33398 11.6667C9.33398 14.2403 11.427 16.3333 14.0007 16.3333ZM14.0007 9.33333C15.2875 9.33333 16.334 10.3798 16.334 11.6667C16.334 12.9535 15.2875 14 14.0007 14C12.7138 14 11.6673 12.9535 11.6673 11.6667C11.6673 10.3798 12.7138 9.33333 14.0007 9.33333Z" fill="#6C3C14"/>
<path d="M13.3228 25.4497C13.5204 25.5903 13.7569 25.6659 13.9995 25.6659C14.242 25.6659 14.4785 25.5903 14.6761 25.4497C15.0308 25.1988 23.3666 19.18 23.3328 11.6667C23.3328 6.5205 19.1456 2.33333 13.9995 2.33333C8.85329 2.33333 4.66612 6.5205 4.66612 11.6608C4.63229 19.18 12.9681 25.1988 13.3228 25.4497ZM13.9995 4.66667C17.86 4.66667 20.9995 7.80617 20.9995 11.6725C21.024 16.8502 15.8801 21.4993 13.9995 23.0242C12.12 21.4982 6.97495 16.8478 6.99945 11.6667C6.99945 7.80617 10.139 4.66667 13.9995 4.66667Z" fill="#6C3C14"/>
</svg>
