<svg width="28" height="28" viewBox="0 0 28 28" fill="none" xmlns="http://www.w3.org/2000/svg">
<path d="M10.4999 18.6667C12.5568 18.6667 14.4316 17.8967 15.8701 16.6378L17.4299 19.9045C17.4299 19.9045 17.7508 20.1658 18.1918 20.5998C18.6433 21.0233 19.2371 21.5962 19.8064 22.1947L21.3908 23.8187L22.0954 24.5723L24.5699 22.0978L23.8162 21.3932L22.1923 19.8088C21.6458 19.2855 21.114 18.7471 20.5974 18.1942C20.1634 17.7532 19.9021 17.4323 19.9021 17.4323L16.6354 15.8725C17.9434 14.3884 18.6656 12.4783 18.6666 10.5C18.6666 5.99784 15.0021 2.33334 10.4999 2.33334C5.99775 2.33334 2.33325 5.99784 2.33325 10.5C2.33325 15.0022 5.99775 18.6667 10.4999 18.6667Z" fill="#6C3C14"/>
</svg>
