<svg width="24" height="24" viewBox="0 0 24 24" fill="none" xmlns="http://www.w3.org/2000/svg">
<path d="M2 24V20H22V24H2ZM4 18V13.75L15.2 2.575C15.3833 2.39167 15.596 2.25 15.838 2.15C16.08 2.05 16.334 2 16.6 2C16.866 2 17.1243 2.05 17.375 2.15C17.6257 2.25 17.8507 2.4 18.05 2.6L19.425 4C19.625 4.18333 19.771 4.4 19.863 4.65C19.955 4.9 20.0007 5.15833 20 5.425C20 5.675 19.9543 5.921 19.863 6.163C19.7717 6.405 19.6257 6.62567 19.425 6.825L8.25 18H4ZM16.6 6.8L18 5.4L16.6 4L15.2 5.4L16.6 6.8Z" fill="white"/>
</svg>
