<svg width="28" height="28" viewBox="0 0 28 28" fill="none" xmlns="http://www.w3.org/2000/svg">
<path d="M23.3334 12.8322H25.6667C25.6667 6.84717 21.1482 2.33334 15.155 2.33334V4.66667C19.894 4.66667 23.3334 8.10017 23.3334 12.8322Z" fill="#6C3C14"/>
<path d="M15.1668 9.33333C17.6203 9.33333 18.6668 10.3798 18.6668 12.8333H21.0001C21.0001 9.07083 18.9293 7 15.1668 7V9.33333ZM19.1591 15.6835C18.935 15.4795 18.6404 15.3706 18.3375 15.38C18.0346 15.3893 17.7473 15.5162 17.5363 15.7337L14.7444 18.6048C14.0724 18.4765 12.7214 18.0553 11.3308 16.6682C9.94009 15.2763 9.51892 13.9218 9.39409 13.2545L12.2629 10.4615C12.4804 10.2505 12.6072 9.96313 12.6166 9.66024C12.626 9.35736 12.5171 9.06272 12.3131 8.83867L8.00225 4.0985C7.79813 3.87375 7.51444 3.73742 7.21143 3.71847C6.90842 3.69952 6.60995 3.79944 6.37942 3.997L3.84775 6.16817C3.64605 6.3706 3.52566 6.64003 3.50942 6.92533C3.49192 7.217 3.15825 14.126 8.51559 19.4857C13.1893 24.1582 19.0436 24.5 20.6559 24.5C20.8916 24.5 21.0363 24.493 21.0748 24.4907C21.3598 24.4738 21.6288 24.353 21.8308 24.1512L24.0008 21.6183C24.1985 21.388 24.2986 21.0896 24.2798 20.7866C24.2611 20.4836 24.125 20.1998 23.9004 19.9955L19.1591 15.6835Z" fill="#6C3C14"/>
</svg>
