<svg width="24" height="24" viewBox="0 0 24 24" fill="none" xmlns="http://www.w3.org/2000/svg">
<path d="M21.7426 12.331L12.7426 2.331C12.3636 1.909 11.6356 1.909 11.2566 2.331L2.25663 12.331C2.12731 12.4747 2.04242 12.6528 2.01225 12.8438C1.98208 13.0348 2.00791 13.2304 2.08663 13.407C2.24663 13.768 2.60463 14 2.99963 14H4.99963V21C4.99963 21.2652 5.10498 21.5196 5.29252 21.7071C5.48006 21.8946 5.73441 22 5.99963 22H8.99963C9.26484 22 9.5192 21.8946 9.70673 21.7071C9.89427 21.5196 9.99963 21.2652 9.99963 21V17H13.9996V21C13.9996 21.2652 14.105 21.5196 14.2925 21.7071C14.4801 21.8946 14.7344 22 14.9996 22H17.9996C18.2648 22 18.5192 21.8946 18.7067 21.7071C18.8943 21.5196 18.9996 21.2652 18.9996 21V14H20.9996C21.1933 14.0008 21.383 13.9453 21.5457 13.8401C21.7083 13.735 21.8369 13.5848 21.9156 13.4079C21.9944 13.231 22.02 13.0349 21.9892 12.8437C21.9585 12.6525 21.8728 12.4744 21.7426 12.331Z" fill="white"/>
</svg>
