<svg width="56" height="56" viewBox="0 0 56 56" fill="none" xmlns="http://www.w3.org/2000/svg">
<path d="M49.9327 33.4833L35.116 48.3C34.8827 48.5333 34.6206 48.7083 34.3297 48.825C34.0388 48.9417 33.737 49 33.4244 49H31.4994C31.1882 49 30.916 48.8833 30.6827 48.65C30.4494 48.4167 30.3327 48.1444 30.3327 47.8333V45.9083C30.3327 45.5972 30.391 45.2962 30.5077 45.0053C30.6243 44.7144 30.7994 44.4515 31.0327 44.2167L45.8493 29.4L49.9327 33.4833ZM4.66602 39.6667V16.3333C4.66602 15.05 5.12335 13.9518 6.03802 13.0387C6.95268 12.1255 8.0509 11.6682 9.33268 11.6667H46.666C47.9494 11.6667 49.0484 12.124 49.963 13.0387C50.8777 13.9533 51.3342 15.0515 51.3327 16.3333C51.3327 16.7611 51.0994 17.2573 50.6327 17.822C50.166 18.3867 49.6216 18.6682 48.9994 18.6667H48.591C47.9688 18.6667 47.3754 18.7833 46.8107 19.0167C46.246 19.25 45.7506 19.5805 45.3243 20.0083L36.341 28.9917C35.9132 29.4194 35.4178 29.75 34.8547 29.9833C34.2916 30.2167 33.6981 30.3333 33.0744 30.3333H16.3327C15.6716 30.3333 15.1178 30.5573 14.6713 31.0053C14.2249 31.4533 14.0009 32.0071 13.9993 32.6667C13.9978 33.3262 14.2218 33.8808 14.6713 34.3303C15.1209 34.7799 15.6747 35.0031 16.3327 35H27.5327C28.0771 35 28.4466 35.2333 28.641 35.7C28.8355 36.1667 28.7382 36.5944 28.3493 36.9833L22.341 42.9917C21.9132 43.4194 21.4178 43.75 20.8547 43.9833C20.2916 44.2167 19.6981 44.3333 19.0744 44.3333H9.33268C8.04935 44.3333 6.95113 43.8768 6.03802 42.9637C5.1249 42.0505 4.66757 40.9515 4.66602 39.6667ZM16.3327 25.6667H25.666C26.3271 25.6667 26.8817 25.4427 27.3297 24.9947C27.7777 24.5467 28.0009 23.9929 27.9994 23.3333C27.9978 22.6738 27.7738 22.12 27.3274 21.672C26.8809 21.224 26.3271 21 25.666 21H16.3327C15.6716 21 15.1178 21.224 14.6713 21.672C14.2249 22.12 14.0009 22.6738 13.9993 23.3333C13.9978 23.9929 14.2218 24.5474 14.6713 24.997C15.1209 25.4465 15.6747 25.6698 16.3327 25.6667ZM51.3327 32.0833L47.2494 28L49.3493 25.9C49.5438 25.7055 49.7577 25.6083 49.991 25.6083C50.2243 25.6083 50.4382 25.7055 50.6327 25.9L53.4327 28.7C53.6271 28.8944 53.7243 29.1083 53.7243 29.3417C53.7243 29.575 53.6271 29.7889 53.4327 29.9833L51.3327 32.0833Z" fill="#6C3C14"/>
</svg>
