<svg width="12" height="12" viewBox="0 0 12 12" fill="none" xmlns="http://www.w3.org/2000/svg">
<path d="M0.666667 6C0.666667 3.05448 3.05448 0.666667 6 0.666667C8.94552 0.666667 11.3333 3.05448 11.3333 6C11.3333 8.94552 8.94552 11.3333 6 11.3333C3.05448 11.3333 0.666667 8.94552 0.666667 6ZM2 5H3V7H2L2 5ZM5 5H6V7H5V5ZM0.666667 6C0.666667 3.05448 3.05448 0.666667 6 0.666667C8.94552 0.666667 11.3333 3.05448 11.3333 6C11.3333 8.94552 8.94552 11.3333 6 11.3333C3.05448 11.3333 0.666667 8.94552 0.666667 6ZM2 5H3V7H2L2 5ZM5 5H6V7H5V5Z" fill="#6C3C14"/>
</svg>
